<?xml version="1.0" encoding="UTF-8" standalone="no"?>
<!-- Created with Inkscape (http://www.inkscape.org/) -->

<svg
   xmlns:dc="http://purl.org/dc/elements/1.1/"
   xmlns:cc="http://creativecommons.org/ns#"
   xmlns:rdf="http://www.w3.org/1999/02/22-rdf-syntax-ns#"
   xmlns:svg="http://www.w3.org/2000/svg"
   xmlns="http://www.w3.org/2000/svg"
   xmlns:xlink="http://www.w3.org/1999/xlink"
   xmlns:sodipodi="http://sodipodi.sourceforge.net/DTD/sodipodi-0.dtd"
   xmlns:inkscape="http://www.inkscape.org/namespaces/inkscape"
   width="662.02795"
   height="671.72137"
   id="svg3779"
   version="1.1"
   inkscape:version="0.48.4 r9939"
   sodipodi:docname="logo_kde.svg">
  <defs
     id="defs3781">
    <filter
       color-interpolation-filters="sRGB"
       inkscape:collect="always"
       id="filter29117">
      <feGaussianBlur
         inkscape:collect="always"
         stdDeviation="11.669392"
         id="feGaussianBlur29119" />
    </filter>
    <linearGradient
       inkscape:collect="always"
       xlink:href="#linearGradient8936"
       id="linearGradient7637"
       gradientUnits="userSpaceOnUse"
       gradientTransform="matrix(0.856332,0,0,0.8563318,14.001425,-62.784892)"
       x1="82.393517"
       y1="349.61835"
       x2="116.42857"
       y2="408.57144" />
    <linearGradient
       id="linearGradient8936">
      <stop
         style="stop-color:#86c7ff;stop-opacity:1;"
         offset="0"
         id="stop8938" />
      <stop
         style="stop-color:#0061ff;stop-opacity:1;"
         offset="1"
         id="stop8940" />
    </linearGradient>
    <linearGradient
       inkscape:collect="always"
       xlink:href="#linearGradient5184"
       id="linearGradient7639"
       gradientUnits="userSpaceOnUse"
       gradientTransform="matrix(0.2699449,0,0,0.2699449,-540.61916,293.70931)"
       x1="2384.9961"
       y1="-205.21005"
       x2="2466.5156"
       y2="47.714874" />
    <linearGradient
       inkscape:collect="always"
       id="linearGradient5184">
      <stop
         style="stop-color:#194b83;stop-opacity:0.55066079"
         offset="0"
         id="stop5186" />
      <stop
         style="stop-color:#194b83;stop-opacity:0;"
         offset="1"
         id="stop5188" />
    </linearGradient>
    <radialGradient
       inkscape:collect="always"
       xlink:href="#linearGradient4006"
       id="radialGradient7641"
       gradientUnits="userSpaceOnUse"
       gradientTransform="matrix(2.7761,-0.3290054,0.2554459,2.1554158,-208.43234,-346.39374)"
       cx="70.137489"
       cy="315.52774"
       fx="70.137489"
       fy="315.52774"
       r="39.662613" />
    <linearGradient
       inkscape:collect="always"
       id="linearGradient4006">
      <stop
         style="stop-color:#003980;stop-opacity:1"
         offset="0"
         id="stop4008" />
      <stop
         style="stop-color:#b2bcff;stop-opacity:0"
         offset="1"
         id="stop4010" />
    </linearGradient>
    <linearGradient
       inkscape:collect="always"
       xlink:href="#linearGradient5103"
       id="linearGradient7643"
       gradientUnits="userSpaceOnUse"
       gradientTransform="matrix(0.7234386,0,0,0.7233884,-242.5039,63.610575)"
       x1="465.44342"
       y1="234.58502"
       x2="465.44342"
       y2="314.69388" />
    <linearGradient
       inkscape:collect="always"
       id="linearGradient5103">
      <stop
         style="stop-color:#ffffff;stop-opacity:0.77973568"
         offset="0"
         id="stop5105" />
      <stop
         style="stop-color:#ffffff;stop-opacity:0"
         offset="1"
         id="stop5107" />
    </linearGradient>
    <linearGradient
       y2="314.69388"
       x2="465.44342"
       y1="234.58502"
       x1="465.44342"
       gradientTransform="matrix(0.7234386,0,0,0.7233884,-242.5039,63.610575)"
       gradientUnits="userSpaceOnUse"
       id="linearGradient3777"
       xlink:href="#linearGradient5103"
       inkscape:collect="always" />
  </defs>
  <sodipodi:namedview
     id="base"
     pagecolor="#ffffff"
     bordercolor="#666666"
     borderopacity="1.0"
     inkscape:pageopacity="0.0"
     inkscape:pageshadow="2"
     inkscape:zoom="0.35"
     inkscape:cx="335.97501"
     inkscape:cy="347.28926"
     inkscape:document-units="px"
     inkscape:current-layer="layer1"
     showgrid="false"
     inkscape:window-width="1080"
     inkscape:window-height="797"
     inkscape:window-x="2"
     inkscape:window-y="48"
     inkscape:window-maximized="0"
     fit-margin-top="0"
     fit-margin-left="0"
     fit-margin-right="0"
     fit-margin-bottom="0" />
  <metadata
     id="metadata3784">
    <rdf:RDF>
      <cc:Work
         rdf:about="">
        <dc:format>image/svg+xml</dc:format>
        <dc:type
           rdf:resource="http://purl.org/dc/dcmitype/StillImage" />
        <dc:title />
      </cc:Work>
    </rdf:RDF>
  </metadata>
  <g
     inkscape:label="Layer 1"
     inkscape:groupmode="layer"
     id="layer1"
     transform="translate(-39.024988,-207.93006)">
    <g
       transform="matrix(5.5459497,0,0,5.5459497,-139.94066,-1043.7121)"
       id="g7522">
      <path
         inkscape:connector-curvature="0"
         id="path26527"
         d="m 1940,-383.875 c -2.1445,-0.011 -4.2049,0.83384 -5.7243,2.34735 -1.5194,1.5135 -2.3722,3.57057 -2.3695,5.71515 l 0,65.40625 -3,8.78125 c -0.1018,0.25678 -0.2618,0.43277 -0.3437,0.71875 -2.3965,8.3965 -2.1429,18.07206 3.5937,26 l 28.9688,42.09375 c -6.7007,11.84632 -12.1123,24.59717 -15.8125,38.0625 l -50.4375,10.625 c -5.4759,0.37136 -10.5102,2.26151 -14.4688,5.5625 -4.2186,3.51788 -7.304,8.95765 -7.125,15.03125 l 0.9376,30.5 c 0.3402,11.54031 10.9847,18.99339 22.2812,19.28125 0.042,0.001 0.083,0.0304 0.125,0.0312 l 48.7188,7.3125 c 3.5879,13.213742 8.7109,25.807376 15.25,37.53125 l -28.5,44.1875 c -7.3445,8.54355 -9.0198,21.3554538 -0.7188,29.40625 l 21.9375,21.1875 c 8.3748,8.12219 21.2578,5.977744 29.5937,-1.78125 l 0.031,0.03125 40.1563,-29.53125 c 12.0838,6.9956969 25.1192,12.4860637 38.8437,16.3125 l 11.9063,54.78125 c 0.4725,5.330088 2.3577,10.227353 5.625,14.0625 3.557,4.17534 9.0237,7.135889 15.0624,6.90625 l 30.5626,-1.09375 c 0.01,2e-5 0.021,2e-5 0.031,0 6.0513,-0.230014 11.2458,-3.622418 14.4688,-8.0625 2.9562,-4.072638 4.4614,-9.096843 4.5312,-14.4375 l 0,-0.09375 7.3438,-51.875 c 12.816,-3.5370132 24.9455,-8.6102344 36.2812,-14.875 0.2901,1.1178464 0.671,2.0665368 1.2812,2.46875 3.4184,2.2530743 8.1458,5.3459864 13.375,8.78125 10.4586,6.870527 22.9248,15.044301 31.0313,20.25 3.9807,2.556396 8.2698,4.831102 13.25,5.78125 4.9802,0.950148 11.414,-0.03909 15.8437,-4.3125 l 22.0318,-21.2812 c 4.4725,-4.3142963 5.5532,-10.8135914 4.7187,-15.78125 -0.8344,-4.967659 -2.9384,-9.244917 -5.25,-13.21875 -0.031,-0.04197 -0.062,-0.08364 -0.094,-0.125 l -1.125,-1.875 c 12.7074,-1.680605 24.2131,-5.935975 33.4063,-13.40625 12.4314,-10.101669 19.861,-26.022582 20.0312,-46.03125 1e-4,-0.02083 1e-4,-0.04167 0,-0.0625 0,-50.22107 0,-175.5625 0,-175.5625 C 2336.2499,-324.44301 2272.475,-383 2202.9062,-383 L 1940,-383.875 z m -7.4375,77.9375 c 0.3383,-0.17598 0.4023,-0.094 0.1563,0.0312 -0.1634,0.0832 -0.7505,0.49244 -1.25,0.84375 0.3955,-0.32428 0.8906,-0.76935 1.0937,-0.875 z"
         style="fill:#a3a3a3;fill-opacity:1;fill-rule:evenodd;stroke:none;display:inline;filter:url(#filter29117);enable-background:new"
         transform="matrix(0.2300076,0,0,0.2300076,-392.15588,320.42172)" />
      <path
         inkscape:connector-curvature="0"
         sodipodi:nodetypes="cccccssccccccccccccccsscssccccccsscccsccccccccccsccssc"
         id="path26529"
         d="m 54.049128,233.47828 0,15.35432 c -0.263141,0.79829 -0.558539,1.60159 -0.836613,2.38681 -0.468814,1.64253 -0.438013,3.02645 0.541347,4.37991 l 7.209635,10.48227 c 0.0067,0.007 0.01841,0.0427 0.02462,0.0492 0.02192,0.024 0.05137,0.0516 0.0738,0.0738 0.0046,0.004 0.04438,0.0206 0.04921,0.0246 -1.945196,3.20678 -3.459532,6.73772 -4.355291,10.48227 -0.0053,-5e-5 -0.01711,-2.3e-4 -0.02462,0 l -12.746042,2.68209 c -1.927272,0.0569 -3.465229,1.3286 -3.420283,2.85432 l 0.221463,7.01279 c 0.04497,1.52572 1.616133,2.71438 3.543324,2.65748 l 12.426157,1.87007 c 0.752102,3.66786 2.827355,7.62121 3.912393,10.80216 l -6.865158,10.65451 c -1.342301,1.38409 -1.538551,3.36649 -0.442926,4.42913 l 5.044299,4.87204 c 1.095706,1.06267 3.086793,0.81813 4.429121,-0.56594 l 10.137808,-7.4557 c 0.01047,-0.0108 0.03928,-0.0384 0.04918,-0.0492 0.0082,1.2e-4 0.02292,3.7e-4 0.02462,0 3.370398,2.1048 7.118987,3.67655 11.097435,4.60138 -2.7e-5,0.003 -5.94e-4,0.0206 0,0.0246 -0.0064,0.0129 -0.04319,0.0616 -0.04921,0.0738 -0.143934,0.18941 -0.208262,0.46176 -0.19687,0.7628 l 2.755921,12.69683 c 0.07324,1.92668 1.35372,3.42906 2.878935,3.37106 l 7.037383,-0.24606 c 1.52527,-0.058 2.681552,-1.66586 2.608262,-3.59252 l 1.820892,-12.89368 c 1.1e-4,-0.0238 -6e-4,-0.0738 0,-0.0984 -1.4e-4,-0.003 -1.4e-4,-0.0171 0,-0.0246 -0.007,-0.0258 -0.0168,-0.098 -0.0246,-0.12304 3.58576,-0.84813 6.94887,-2.2486 10.03936,-4.06003 0.0233,0.08 0.0455,0.18634 0.0738,0.27067 0,0 7.76558,5.12833 11.4665,7.50491 1.60347,1.02974 3.30596,1.62575 4.40453,0.56594 l 5.06889,-4.89664 c 1.0986,-1.05975 0.50372,-2.77716 -0.44293,-4.40453 l -1.84545,-3.05117 c 7.75385,0.0446 13.53623,-3.67776 13.60728,-12.03247 0,-11.55123 0,-40.37889 0,-40.37889 -3e-5,-14.03294 -13.87323,-26.87004 -28.81397,-26.87004 l -60.482216,-0.19686 z m 12.598436,34.71945 0.02459,7.20964 c -4.124677,10.35551 -1.855844,22.63923 6.692906,30.80705 7.390552,7.06124 17.626835,9.30787 26.82084,6.81594 l 6.07775,0 c -4.01832,2.00134 -8.548939,3.15528 -13.336601,3.22342 -17.089024,0.2432 -31.154314,-13.44732 -31.397588,-30.53638 -0.09202,-6.46464 1.799129,-12.5033 5.118101,-17.51967 z"
         style="fill:#ffffff;fill-opacity:1;fill-rule:evenodd;stroke:none;display:inline;enable-background:new" />
      <path
         inkscape:connector-curvature="0"
         style="fill:url(#linearGradient7637);fill-opacity:1;fill-rule:evenodd;stroke:url(#linearGradient7639);stroke-width:0.42549819;stroke-opacity:1;display:inline;enable-background:new"
         d="m 138.35905,300.92347 c 0,-11.55123 0,-38.80053 0,-38.80053 0,-12.96279 -11.36789,-23.47074 -25.39404,-23.47074 l -14.557834,0 0,-0.0313 -39.373354,-0.17205 0,14.15704 c 0,0 3.214855,0 6.04404,0 4.218915,0 4.964205,2.91237 4.964205,6.94343 l 0.03126,25.02803 c 0,12.96281 11.367947,23.47074 25.378492,23.47074 l 34.591951,0 c 4.43471,0 8.31528,-2.80846 8.31528,-7.12464 z"
         id="path26531"
         sodipodi:nodetypes="cccccccsccccc" />
      <path
         inkscape:connector-curvature="0"
         style="fill:url(#radialGradient7641);fill-opacity:1;fill-rule:evenodd;stroke:none;display:inline;enable-background:new"
         d="m 138.35905,300.92347 c 0,-11.55123 0,-38.80053 0,-38.80053 0,-12.96279 -11.36789,-23.47074 -25.39404,-23.47074 l -14.557834,0 0,-0.0313 -39.373354,-0.17205 0,14.15704 c 0,0 3.214855,0 6.04404,0 4.218915,0 4.964205,2.91237 4.964205,6.94343 l 0.03126,25.02803 c 0,12.96281 11.367947,23.47074 25.378492,23.47074 l 34.591951,0 c 4.43471,0 8.31528,-2.80846 8.31528,-7.12464 z"
         id="path3993"
         sodipodi:nodetypes="cccccccsccccc" />
      <path
         inkscape:connector-curvature="0"
         sodipodi:nodetypes="csccccsssccccssscccccccccccccccsscc"
         style="fill:#ffffff;fill-opacity:1;fill-rule:evenodd;stroke:none;stroke-width:1;marker:none;visibility:visible;display:inline;overflow:visible;enable-background:accumulate"
         d="m 103.55135,253.38951 c -3.15676,0 -5.961621,1.172 -8.215283,3.44859 -2.252529,2.27537 -3.435265,5.11599 -3.435265,8.32172 l 0,16.20431 7.349817,0 0,-16.20431 c 0,-1.22871 0.400949,-2.18947 1.278241,-3.07568 0.88018,-0.88905 1.81225,-1.29152 3.02249,-1.29152 1.23562,0 2.15368,0.40045 3.03578,1.29152 0.87732,0.88621 1.27824,1.84697 1.27824,3.07568 l 0,16.20431 7.34984,0 0,-16.20431 c 0,-1.22871 0.40093,-2.18947 1.27825,-3.07568 0.8821,-0.89107 1.80018,-1.29152 3.0358,-1.29152 1.21021,0 2.14228,0.40247 3.02246,1.29152 0.8773,0.88621 1.27822,1.84697 1.27822,3.07568 l 0.04,18.93391 c 0,4.03896 -3.84636,7.44298 -8.78784,7.44298 l -23.700514,-0.0932 c -3.81335,0 -7.070208,-3.71169 -7.070208,-8.48161 l 0,-35.65523 -6.950379,0 0,37.02664 c 0,3.92852 1.43751,7.37354 4.234139,10.15932 2.390308,2.35939 5.265006,3.88879 8.494896,4.23421 l 26.390136,-6e-5 c 4.05522,0 7.61793,-1.50786 10.49214,-4.43397 l 0.0133,0 c 2.44446,-2.51149 3.87352,-5.52081 4.22081,-8.90757 l -0.0266,-20.22544 c 0,-3.20573 -1.18269,-6.04635 -3.43524,-8.32172 -2.25364,-2.27659 -5.05853,-3.44859 -8.21526,-3.44859 -3.09862,0 -5.80992,1.15224 -8.00228,3.26214 -2.18596,-2.10643 -4.87831,-3.26214 -7.97563,-3.26214 z"
         id="path26537" />
      <path
         inkscape:connector-curvature="0"
         style="opacity:0.3;fill:#60b6ff;fill-opacity:1;fill-rule:evenodd;stroke:none;stroke-width:1;marker:none;visibility:visible;display:inline;overflow:visible;enable-background:accumulate"
         d="m 99.229158,291.46816 0,7.25864 17.263782,0 c 4.05522,0 7.5969,-1.51245 10.47109,-4.43856 l 0.0245,0 c 2.44448,-2.5115 3.87057,-5.51488 4.21786,-8.90164 l 0,-4.11977 -7.33222,0 0,2.82008 c 0,4.03898 -3.83756,7.4303 -8.77901,7.4303 l -15.866012,-0.049 z"
         id="path26539" />
      <path
         inkscape:connector-curvature="0"
         sodipodi:nodetypes="ccsccccccc"
         id="path26541"
         d="m 58.546137,237.89477 0,15.31969 c -3.8e-5,0 2.537193,0 5.538989,0 4.476332,0 5.384426,3.08416 5.384426,7.36091 l 0.157205,26.56731 c 0,0.7441 0.117709,1.34214 0.376265,2.19591 26.428235,-5.61797 41.634578,-22.94146 68.881758,-23.50543 0,-0.20387 0,-2.50518 0,-2.50518 3e-5,-13.75288 -9.099,-25.43321 -23.98112,-25.43321 l -56.357523,0 z"
         style="fill:url(#linearGradient3777);fill-opacity:1;stroke:none;display:inline;enable-background:new" />
    </g>
  </g>
</svg>
